@startuml 社員管理システム

' クラス定義
class 社員 {
  氏名：文字列
  社員ID：文字列
  パスワード：文字列
  --
  +ログインする(社員ID, パスワード)
  経費を登録する
  経費を申請する
}

class マネージャ {
  --
  経費を承認/却下する
}

class 部署 {
  部署名
}

class 会社 {
  会社名
}

' 継承関係
社員 <|-- マネージャ

' 関連
社員 "1..*" -- "1" 部署 : 所属する >
社員 -- 部署 : 所属社員 - 所属部署
部署 "1..*" -- "1" 会社

@enduml
