@startuml 図書館管理システム

' クラス定義
class 図書館 {
}

class 図書館員 {
}

class 著者 {
  -著者識別id
}

class 図書分類 {
  -分類名
}

class 図書タイトル {
  -図書タイトル番号
  -書名
  -出版社名
  -発行年
}

class 図書 {
  -図書登録番号
  +貸出し可能？()
}

class 貸出予約 {
  -予約日時
}

class 図書貸出 {
  -貸出し日
  -返却期限日
  +create()
  +貸出し実施()
  +貸出し実行！()
}

class 登録利用者 {
  -利用者登録番号
  -連絡先
  -本人確認手段
  +借り出し権利あり？()
}

class 人物 {
  -氏名
  -生年月日
}

' 関連
図書館 "1" -- "0..*" 図書館員
図書館 "1" -- "0..*" 図書分類
図書館 "1" -- "1..*" 図書分類
図書館 "1" -- "0..*" 図書タイトル
図書館 "1" -- "0..*" 図書
図書館 "1" -- "0..*" 登録利用者

著者 "0..*" -- "0..*" 図書タイトル
図書分類 "0..*" -- "0..*" 図書タイトル
図書タイトル "1" -- "0..*" 図書
図書 "1" -- "0..1" 貸出予約
図書タイトル "0..1" -- "0..*" 貸出予約
図書 "1" -- "0..1" 図書貸出
登録利用者 "1" -- "0..*" 図書貸出
登録利用者 "1" -- "0..*" 貸出予約

人物 <|-- 登録利用者

@enduml
